<?xml version="1.0" standalone="no"?>
<!DOCTYPE svg PUBLIC "-//W3C//DTD SVG 20010904//EN"
 "http://www.w3.org/TR/2001/REC-SVG-20010904/DTD/svg10.dtd">
<svg version="1.0" xmlns="http://www.w3.org/2000/svg"
 width="906.000000pt" height="906.000000pt" viewBox="0 0 906.000000 906.000000"
 preserveAspectRatio="xMidYMid meet">
<metadata>
Created by potrace 1.14, written by Peter Selinger 2001-2017
</metadata>
<g transform="translate(0.000000,906.000000) scale(0.100000,-0.100000)"
fill="#000000" stroke="none">
<path d="M4175 9039 c-656 -53 -1317 -258 -1885 -584 -343 -197 -627 -413
-919 -700 -388 -381 -674 -777 -907 -1260 -600 -1241 -600 -2689 0 -3930 233
-483 519 -879 907 -1260 228 -224 409 -371 666 -543 481 -322 1028 -548 1615
-667 471 -96 1008 -112 1503 -44 1975 270 3547 1816 3850 3787 40 263 50 393
50 692 -1 299 -10 433 -50 692 -173 1121 -759 2131 -1650 2843 -707 565 -1567
904 -2479 975 -148 11 -553 11 -701 -1z m-835 -1388 c0 -4 11 -6 24 -4 75 15
456 -109 456 -148 0 -5 4 -8 9 -4 14 8 175 -104 262 -182 119 -107 319 -333
319 -360 0 -18 -82 -118 -93 -115 -7 2 -55 20 -107 41 -485 192 -1092 181
-1512 -30 -213 -107 -345 -236 -363 -356 -9 -60 19 -194 59 -275 107 -222 431
-498 801 -681 235 -116 227 -118 770 136 336 157 689 309 1028 443 236 94 284
106 273 66 -66 -234 -209 -719 -214 -724 -4 -3 -72 -32 -152 -63 -397 -156
-812 -337 -1135 -495 -582 -285 -886 -481 -1141 -735 -197 -196 -348 -440
-394 -638 -39 -165 -25 -401 35 -576 20 -58 22 -77 13 -84 -10 -6 -9 -8 2 -5
9 3 24 -16 43 -56 45 -96 150 -247 233 -335 475 -505 1381 -770 2468 -722 401
18 726 56 1026 122 74 16 140 29 145 29 13 0 47 -88 40 -101 -9 -13 -318 -235
-482 -345 -218 -146 -461 -290 -550 -325 -91 -37 -243 -72 -413 -96 -181 -25
-717 -25 -915 0 -381 50 -674 132 -960 272 -231 112 -364 205 -533 369 -113
110 -172 180 -249 296 -95 141 -206 386 -197 431 4 17 3 20 -4 11 -11 -17 -53
137 -82 303 -27 151 -37 448 -21 594 35 318 151 649 326 926 124 197 320 431
507 604 l87 80 -72 52 c-296 215 -520 436 -628 621 -168 288 -183 664 -42
1072 84 244 205 445 369 616 113 117 226 203 342 261 88 45 197 83 211 75 5
-4 11 -1 13 5 9 26 398 57 398 30z m1150 -4166 c0 -149 -2 -175 -15 -175 -9 0
-15 9 -15 22 0 20 -1 20 -18 5 -34 -31 -76 -40 -115 -23 -49 20 -71 58 -71
121 0 63 22 101 70 121 40 17 79 10 112 -19 l22 -20 0 71 c0 57 3 72 15 72 13
0 15 -26 15 -175z m320 0 c0 -149 -2 -175 -15 -175 -9 0 -15 9 -15 22 0 20 -1
20 -18 5 -34 -31 -76 -40 -115 -23 -49 20 -71 58 -71 121 0 63 22 101 70 121
40 17 79 10 112 -19 l22 -20 0 71 c0 57 3 72 15 72 13 0 15 -26 15 -175z
m-1502 2 c39 -89 72 -165 72 -169 0 -5 -6 -8 -13 -8 -7 0 -23 20 -35 45 l-22
45 -94 0 -94 0 -19 -45 c-11 -29 -24 -45 -35 -45 -15 0 -12 11 18 78 19 42 54
119 76 170 27 61 46 92 57 92 11 0 39 -51 89 -163z m1632 143 c0 -13 -7 -20
-20 -20 -13 0 -20 7 -20 20 0 13 7 20 20 20 13 0 20 -7 20 -20z m882 -117 l3
-138 83 -3 82 -3 0 -29 0 -30 -120 0 -120 0 0 170 0 170 35 0 34 0 3 -137z
m473 -20 c37 -87 69 -164 72 -170 4 -9 -6 -13 -31 -13 -33 0 -38 4 -52 40
l-16 40 -73 0 -72 0 -16 -40 c-13 -35 -20 -40 -46 -40 -17 0 -31 3 -31 8 0 4
30 80 67 169 67 161 68 163 100 163 31 0 32 -1 98 -157z m195 87 l0 -70 70 0
70 0 0 70 0 70 35 0 35 0 0 -170 0 -170 -35 0 -35 0 0 70 0 71 -67 -3 -68 -3
-3 -67 -3 -68 -34 0 -35 0 0 170 0 170 35 0 35 0 0 -70z m372 -67 l3 -138 83
-3 82 -3 0 -29 0 -30 -120 0 -120 0 0 170 0 170 35 0 34 0 3 -137z m308 -33
l0 -170 -35 0 -35 0 0 170 0 170 35 0 35 0 0 -170z m152 33 l3 -138 83 -3 82
-3 0 -29 0 -30 -120 0 -120 0 0 170 0 170 35 0 34 0 3 -137z m-3197 43 c39
-17 61 -47 70 -98 l7 -38 -101 0 c-114 0 -124 -8 -72 -61 33 -33 67 -37 113
-13 19 10 34 12 40 6 15 -15 -42 -45 -88 -46 -80 -2 -124 44 -124 129 0 72 25
107 90 128 24 8 29 8 65 -7z m1051 4 c47 -18 53 -37 54 -147 0 -85 -3 -103
-15 -103 -12 0 -15 17 -15 95 0 82 -3 98 -20 115 -27 27 -63 25 -97 -4 -26
-23 -28 -30 -31 -115 -3 -70 -7 -91 -18 -91 -11 0 -14 25 -14 125 0 104 2 125
15 125 8 0 15 -7 15 -15 0 -19 14 -19 30 -1 6 8 21 17 33 19 12 2 25 5 29 6 4
0 19 -4 34 -9z m289 -4 c39 -17 61 -47 70 -98 l7 -38 -101 0 c-114 0 -124 -8
-72 -61 33 -33 67 -37 113 -13 19 10 34 12 40 6 15 -15 -42 -45 -88 -46 -80
-2 -124 44 -124 129 0 72 25 107 90 128 24 8 29 8 65 -7z m-1815 -6 c0 -6 -36
-53 -80 -104 -44 -52 -80 -97 -80 -100 0 -3 36 -6 80 -6 64 0 80 -3 80 -15 0
-12 -18 -15 -105 -15 -79 0 -105 3 -105 13 0 7 35 55 79 107 l79 95 -79 3
c-61 2 -79 6 -79 17 0 12 20 15 105 15 66 0 105 -4 105 -10z m270 0 c0 -6 -36
-53 -80 -104 -44 -52 -80 -97 -80 -100 0 -3 36 -6 80 -6 64 0 80 -3 80 -15 0
-12 -18 -15 -105 -15 -79 0 -105 3 -105 13 0 7 35 55 79 107 l79 95 -79 3
c-61 2 -79 6 -79 17 0 12 20 15 105 15 66 0 105 -4 105 -10z m1020 -120 c0
-100 -2 -120 -15 -120 -12 0 -15 20 -15 120 0 100 3 120 15 120 13 0 15 -20
15 -120z m340 -335 c0 -3 -41 -86 -90 -185 -56 -113 -96 -180 -105 -180 -10 0
13 56 77 185 51 102 98 185 105 185 7 0 13 -2 13 -5z m-1280 -170 c0 -122 -2
-145 -15 -145 -9 0 -15 9 -15 21 l0 20 -26 -20 c-66 -52 -154 1 -154 90 0 22
10 41 34 65 40 40 80 44 120 13 l26 -20 0 60 c0 48 3 61 15 61 13 0 15 -23 15
-145z m-981 63 c13 -39 31 -90 40 -112 l18 -41 37 113 c23 68 43 112 51 112 8
0 28 -43 50 -110 20 -60 38 -110 40 -110 1 0 20 50 41 110 28 80 43 110 55
110 13 0 8 -23 -34 -140 -28 -79 -55 -140 -62 -140 -7 0 -31 50 -53 112 l-39
112 -38 -113 c-27 -83 -41 -111 -52 -109 -10 2 -33 53 -64 141 -42 119 -46
137 -31 137 13 0 24 -18 41 -72z m1237 39 c60 -70 5 -147 -106 -147 l-50 0 0
-50 c0 -38 -4 -50 -15 -50 -13 0 -15 22 -15 141 l0 141 81 -4 c74 -3 83 -6
105 -31z m1341 18 c26 -11 33 -19 26 -26 -8 -8 -17 -8 -31 0 -30 16 -88 13
-106 -5 -34 -34 -16 -56 65 -80 67 -20 89 -39 89 -76 0 -72 -110 -103 -187
-53 -36 24 -15 42 25 21 63 -33 137 -13 130 35 -2 19 -12 27 -48 37 -75 22
-108 40 -115 62 -24 75 61 123 152 85z m923 0 c0 -12 -16 -15 -85 -15 l-85 0
0 -45 0 -45 75 0 c60 0 75 -3 75 -15 0 -12 -15 -15 -75 -15 l-75 0 0 -50 0
-50 85 0 c69 0 85 -3 85 -15 0 -12 -18 -15 -100 -15 l-100 0 0 140 0 140 100
0 c82 0 100 -3 100 -15z m1000 -25 c0 -27 3 -30 30 -30 20 0 30 -5 30 -15 0
-10 -10 -15 -30 -15 l-31 0 3 -72 c3 -71 4 -73 31 -76 37 -5 36 -32 -2 -32
-48 0 -61 22 -61 106 0 59 -3 74 -15 74 -8 0 -15 7 -15 15 0 8 7 15 15 15 10
0 15 10 15 30 0 20 5 30 15 30 10 0 15 -10 15 -30z m-3961 -64 c38 -38 37
-105 -2 -143 -23 -23 -36 -28 -78 -28 -45 0 -54 4 -81 34 -26 29 -29 40 -25
73 6 42 29 75 62 89 35 15 96 3 124 -25z m201 22 c0 -7 -15 -20 -33 -28 -41
-19 -57 -52 -57 -117 0 -40 -4 -53 -15 -53 -12 0 -15 18 -15 100 0 82 3 100
15 100 9 0 15 -9 15 -22 1 -20 2 -21 13 -7 25 33 77 51 77 27z m690 0 c0 -7
-15 -20 -33 -28 -41 -19 -57 -52 -57 -117 0 -40 -4 -53 -15 -53 -12 0 -15 18
-15 100 0 82 3 100 15 100 9 0 15 -9 15 -22 1 -20 2 -21 13 -7 25 33 77 51 77
27z m169 -3 c26 -13 51 -58 51 -91 0 -10 -23 -14 -86 -16 l-86 -3 22 -27 c16
-22 30 -28 59 -28 20 0 42 5 49 12 9 9 15 9 23 1 8 -8 3 -15 -19 -27 -51 -26
-89 -21 -129 19 -32 32 -35 39 -30 78 4 30 15 50 37 70 34 30 67 34 109 12z
m234 -4 c18 -18 0 -24 -33 -12 -23 7 -38 8 -52 0 -29 -16 -18 -40 27 -56 59
-20 81 -46 69 -80 -13 -39 -70 -53 -120 -30 -45 22 -36 39 13 22 21 -7 46 -10
58 -5 30 11 25 43 -10 58 -89 38 -104 63 -64 103 17 17 29 20 61 16 22 -3 45
-10 51 -16z m190 0 c18 -18 0 -24 -33 -12 -23 7 -38 8 -52 0 -29 -16 -18 -40
27 -56 59 -20 81 -46 69 -80 -13 -39 -70 -53 -120 -30 -45 22 -36 39 13 22 21
-7 46 -10 58 -5 30 11 25 43 -10 58 -89 38 -104 63 -64 103 17 17 29 20 61 16
22 -3 45 -10 51 -16z m786 4 c26 -13 51 -58 51 -91 0 -10 -23 -14 -86 -16
l-86 -3 22 -27 c16 -22 30 -28 59 -28 20 0 42 5 49 12 9 9 15 9 23 1 8 -8 3
-15 -19 -27 -51 -26 -89 -21 -129 19 -32 32 -35 39 -30 78 4 30 15 50 37 70
34 30 67 34 109 12z m280 -19 c38 -38 37 -105 -2 -143 -23 -23 -36 -28 -78
-28 -45 0 -54 4 -81 34 -26 29 -29 40 -25 73 6 42 29 75 62 89 35 15 96 3 124
-25z m508 -6 c15 -22 31 -40 34 -40 4 0 19 18 34 40 15 22 34 40 41 40 20 0
18 -6 -21 -57 -38 -49 -38 -48 13 -110 30 -38 32 -43 15 -43 -12 0 -31 16 -48
40 -15 22 -30 40 -34 40 -3 0 -19 -18 -34 -40 -16 -22 -35 -40 -43 -40 -21 0
-18 8 21 56 19 23 35 45 35 49 0 4 -13 24 -28 44 -41 52 -45 61 -28 61 8 0 27
-18 43 -40z m336 29 c35 -18 57 -51 57 -87 0 -90 -88 -143 -154 -91 l-26 20 0
-50 c0 -39 -4 -51 -15 -51 -13 0 -15 21 -15 130 0 109 2 130 15 130 8 0 15 -7
15 -16 0 -13 5 -12 26 5 30 23 64 27 97 10z m256 -4 c26 -13 51 -58 51 -91 0
-10 -23 -14 -86 -16 l-86 -3 22 -27 c16 -22 30 -28 59 -28 20 0 42 5 49 12 9
9 15 9 23 1 8 -8 3 -15 -19 -27 -51 -26 -89 -21 -129 19 -32 32 -35 39 -30 78
4 30 15 50 37 70 34 30 67 34 109 12z m221 3 c0 -7 -15 -20 -33 -28 -41 -19
-57 -52 -57 -117 0 -40 -4 -53 -15 -53 -12 0 -15 18 -15 100 0 82 3 100 15
100 9 0 15 -9 15 -22 1 -20 2 -21 13 -7 25 33 77 51 77 27z"/>
<path d="M3538 7593 c7 -3 16 -2 19 1 4 3 -2 6 -13 5 -11 0 -14 -3 -6 -6z"/>
<path d="M2950 7586 c0 -2 8 -10 18 -17 15 -13 16 -12 3 4 -13 16 -21 21 -21
13z"/>
<path d="M3498 7583 c7 -3 16 -2 19 1 4 3 -2 6 -13 5 -11 0 -14 -3 -6 -6z"/>
<path d="M3408 7563 c7 -3 16 -2 19 1 4 3 -2 6 -13 5 -11 0 -14 -3 -6 -6z"/>
<path d="M3318 7543 c7 -3 16 -2 19 1 4 3 -2 6 -13 5 -11 0 -14 -3 -6 -6z"/>
<path d="M2823 7485 c0 -27 2 -38 4 -22 2 15 2 37 0 50 -2 12 -4 0 -4 -28z"/>
<path d="M3000 7526 c0 -2 8 -10 18 -17 15 -13 16 -12 3 4 -13 16 -21 21 -21
13z"/>
<path d="M3228 7523 c7 -3 16 -2 19 1 4 3 -2 6 -13 5 -11 0 -14 -3 -6 -6z"/>
<path d="M3188 7513 c7 -3 16 -2 19 1 4 3 -2 6 -13 5 -11 0 -14 -3 -6 -6z"/>
<path d="M3064 7497 c-22 -12 -34 -27 -33 -42 0 -5 3 -4 6 3 4 10 10 9 27 -5
l21 -18 -19 22 c-18 22 -18 22 10 28 16 4 33 8 39 9 5 1 0 5 -11 8 -12 3 -30
1 -40 -5z"/>
<path d="M1935 2878 l-40 -43 43 40 c39 36 47 45 39 45 -2 0 -21 -19 -42 -42z"/>
<path d="M1978 2825 c-11 -55 -14 -92 -8 -115 l8 -35 1 35 c0 19 5 62 11 94
17 93 7 111 -12 21z"/>
<path d="M1951 2694 c0 -11 3 -14 6 -6 3 7 2 16 -1 19 -3 4 -6 -2 -5 -13z"/>
<path d="M1941 2644 c0 -11 3 -14 6 -6 3 7 2 16 -1 19 -3 4 -6 -2 -5 -13z"/>
<path d="M1962 2625 c0 -16 2 -22 5 -12 2 9 2 23 0 30 -3 6 -5 -1 -5 -18z"/>
<path d="M1931 2594 c0 -11 3 -14 6 -6 3 7 2 16 -1 19 -3 4 -6 -2 -5 -13z"/>
<path d="M1952 2550 c0 -19 2 -27 5 -17 2 9 2 25 0 35 -3 9 -5 1 -5 -18z"/>
<path d="M1921 2544 c0 -11 3 -14 6 -6 3 7 2 16 -1 19 -3 4 -6 -2 -5 -13z"/>
<path d="M1911 2494 c0 -11 3 -14 6 -6 3 7 2 16 -1 19 -3 4 -6 -2 -5 -13z"/>
<path d="M1942 2475 c0 -16 2 -22 5 -12 2 9 2 23 0 30 -3 6 -5 -1 -5 -18z"/>
<path d="M4334 3528 c-31 -14 -49 -54 -48 -101 1 -32 8 -47 33 -69 37 -33 69
-36 105 -7 89 70 10 226 -90 177z"/>
<path d="M4654 3528 c-31 -14 -49 -54 -48 -101 1 -32 8 -47 33 -69 37 -33 69
-36 105 -7 89 70 10 226 -90 177z"/>
<path d="M3181 3528 c-18 -40 -35 -79 -38 -85 -4 -10 15 -13 75 -13 l81 0 -37
85 c-20 46 -40 85 -43 85 -3 0 -21 -33 -38 -72z"/>
<path d="M6173 3508 l-20 -53 39 -3 c22 -2 42 -1 44 1 5 5 -25 87 -36 100 -4
4 -16 -16 -27 -45z"/>
<path d="M4026 3509 c-14 -17 -26 -39 -26 -50 0 -17 8 -19 80 -19 77 0 80 1
80 24 0 13 -9 35 -21 50 -30 38 -79 36 -113 -5z"/>
<path d="M5366 3509 c-14 -17 -26 -39 -26 -50 0 -17 8 -19 80 -19 77 0 80 1
80 24 0 13 -9 35 -21 50 -30 38 -79 36 -113 -5z"/>
<path d="M3841 2934 c-12 -15 -21 -37 -21 -49 0 -12 9 -34 21 -49 42 -53 129
-19 129 50 0 67 -88 100 -129 48z"/>
<path d="M4100 2970 l0 -60 55 0 c60 0 95 22 95 60 0 38 -35 60 -95 60 l-55 0
0 -60z"/>
<path d="M3421 2934 c-28 -35 -26 -69 4 -99 49 -50 135 -17 135 52 0 65 -99
98 -139 47z"/>
<path d="M4553 2959 c-20 -7 -53 -45 -53 -61 0 -5 32 -8 70 -8 39 0 70 2 70 5
0 4 -7 19 -15 34 -16 32 -40 42 -72 30z"/>
<path d="M5763 2959 c-20 -7 -53 -45 -53 -61 0 -5 32 -8 70 -8 39 0 70 2 70 5
0 4 -7 19 -15 34 -16 32 -40 42 -72 30z"/>
<path d="M5971 2934 c-28 -35 -26 -69 4 -99 49 -50 135 -17 135 52 0 65 -99
98 -139 47z"/>
<path d="M6851 2934 c-12 -15 -21 -37 -21 -49 0 -12 9 -34 21 -49 42 -54 129
-21 129 49 0 68 -88 101 -129 49z"/>
<path d="M7143 2959 c-20 -7 -53 -45 -53 -61 0 -5 32 -8 70 -8 39 0 70 2 70 5
0 4 -7 19 -15 34 -16 32 -40 42 -72 30z"/>
</g>
</svg>
